<svg xmlns="http://www.w3.org/2000/svg" width="3130" height="2750" viewBox="0 0 626 550">
  <metadata><?xpacket begin="﻿" id="W5M0MpCehiHzreSzNTczkc9d"?>
<x:xmpmeta xmlns:x="adobe:ns:meta/" x:xmptk="Adobe XMP Core 5.6-c142 79.160924, 2017/07/13-01:06:39        ">
   <rdf:RDF xmlns:rdf="http://www.w3.org/1999/02/22-rdf-syntax-ns#">
      <rdf:Description rdf:about=""/>
   </rdf:RDF>
</x:xmpmeta>
                                                                                                    
                                                                                                    
                                                                                                    
                                                                                                    
                                                                                                    
                                                                                                    
                                                                                                    
                                                                                                    
                                                                                                    
                                                                                                    
                                                                                                    
                                                                                                    
                                                                                                    
                                                                                                    
                                                                                                    
                                                                                                    
                                                                                                    
                                                                                                    
                                                                                                    
                                                                                                    
                           
<?xpacket end="w"?></metadata>
<defs>
    <style>
      .cls-1, .cls-2, .cls-3 {
        fill-rule: evenodd;
      }

      .cls-2 {
        fill: #fff;
      }

      .cls-3 {
        fill: #e5bd02;
      }
    </style>
  </defs>
  <path id="back" class="cls-1" d="M625.9,0.934L312.583,104.071-0.068.116,102.239,422.485,312.583,550.178,521.29,421.847Z"/>
  <path id="back_copy" data-name="back copy" class="cls-1" d="M597.994,26.73l-284.8,93L29,25.992l93,380.857,191.2,115.143L502.905,406.273Z"/>
  <path id="eyes" class="cls-2" d="M498.4,250.087l-96.413,33.792-22.833,18.266,24.112,4.2,72.151-26.485Zm-369.858.3,96.628,34.771,23.5,18.018L223.8,306.1l-71.871-25.788Z"/>
  <path id="text" class="cls-3" d="M28.84,26.2L73.433,40.176l23.96,129.789,10.317,3L85.08,44.5l44.926,14.643,16.972,126.128,10.316,3.993L140.988,62.806l48.586,15.308L215.2,256.158,72.1,205.907ZM197.894,81.11l92.514,30.284-0.333,54.91h46.257v-54.91l90.517-29.951L401.89,258.488l-65.558,23.628V227.205l-46.257-.332-0.333,56.574-65.558-23.961ZM597.9,25.867l-12.646,51.25-99.5,36.607-4.659,10.65L581.926,89.43,554.638,202.912,410.875,255.493l7.654-53.58,96.84-36.274,3.661-8.985L420.859,192.6l16.306-114.48ZM232.5,375.3l-7.321-49.586L90.738,278.788l22.629,97.175,64.893,21.965,3.328,8.985-65.892-23.3,5.658,25.293L248.81,486.783l-14.643-103.5-68.553-22.629-4.326-8.986Zm57.239-83.2-63.894-22.963,0.665,11.315,33.279,25.292L231.505,310.4l13.644,95.179H317.7l1,116.81,48.586-30.284L393.9,309.737l-27.288-4.326,31.615-24.959,1.331-11.315-63.229,22.63,0.333,64.562-46.59,1.331Zm110.484,32.613L535.67,276.459l-24.627,97.507-67.555,26.291-2.662,9.318,68.221-27.621-6.323,27.288L376.6,486.783l15.308-104.164,63.561-21.964L460.793,352l-67.888,23.961Z"/>
</svg>
